# xmcd
#
# Track frame offsets: 
#        150
#        29419
#        46449
#        62093
#        84420
#        100813
#        119136
#        138201
#        159849
#        182007
#
# Disc length: 2721 seconds
#
# Revision: 4
# Processed by: cddbd v1.5.2PL0 Copyright (c) Steve Scherf et al.
# Submitted via: ExactAudioCopy v1.0b2
#
DISCID=800a9f0a
DTITLE=Firewind - The Premonition
DYEAR=2008
DGENRE=Metal
TTITLE0=Into The Fire
TTITLE1=Head Up High
TTITLE2=Mercenary Man
TTITLE3=Angels Forgive Me
TTITLE4=Remembered
TTITLE5=My Loneliness
TTITLE6=Circle Of Life
TTITLE7=The Silent Code
TTITLE8=Maniac
TTITLE9=Life Foreclosed
EXTD=
EXTT0=
EXTT1=
EXTT2=
EXTT3=
EXTT4=
EXTT5=
EXTT6=
EXTT7=
EXTT8=
EXTT9=
PLAYORDER=
